<?xml version="1.0" encoding="UTF-8"?>
<svg version="1.1" xmlns="http://www.w3.org/2000/svg" width="512" height="512">
<path d="M0 0 C20.76947474 16.46827855 34.1583352 37.35407362 45.56640625 60.93359375 C46.08710693 62.00851074 46.60780762 63.08342773 47.14428711 64.19091797 C49.60767269 69.3776342 51.80198301 74.33985748 53.12890625 79.93359375 C54.299375 79.71703125 55.46984375 79.50046875 56.67578125 79.27734375 C80.04570374 75.34464694 106.96795963 74.08198658 130.12890625 79.93359375 C130.81742676 80.1052002 131.50594727 80.27680664 132.21533203 80.45361328 C151.76963071 85.52929415 170.47403993 95.4640017 181.140625 113.296875 C191.99085548 133.4779141 191.86012835 154.84604738 185.69140625 176.49609375 C178.96509561 198.55676566 167.12907754 218.41438959 152.90625 236.41796875 C152.31972656 237.248125 151.73320312 238.07828125 151.12890625 238.93359375 C150.59007812 239.68898437 150.05125 240.444375 149.49609375 241.22265625 C149.0399068 244.59067476 149.68330918 245.19233678 151.609375 247.91015625 C152.83098725 249.47074814 154.06777973 251.01953061 155.31640625 252.55859375 C173.39810619 275.95125585 188.09199491 304.01039617 190.12890625 333.93359375 C190.21011719 334.95646484 190.21011719 334.95646484 190.29296875 336 C191.00293897 353.00701387 184.78263523 368.94678071 174.12890625 381.93359375 C173.608125 382.56910156 173.08734375 383.20460938 172.55078125 383.859375 C157.25138669 400.66552811 132.91554769 406.77734304 111.12890625 408.93359375 C108.49263336 409.04353562 105.88202341 409.11968718 103.24609375 409.13671875 C102.51687714 409.14350647 101.78766052 409.15029419 101.03634644 409.1572876 C98.69215565 409.17415295 96.34815367 409.18047752 94.00390625 409.18359375 C93.20698364 409.18593018 92.41006104 409.1882666 91.58898926 409.19067383 C78.56260986 409.20508282 65.96091178 408.30779742 53.12890625 405.93359375 C52.54496094 407.81691406 52.54496094 407.81691406 51.94921875 409.73828125 C50.06125236 415.38893152 47.59045452 420.69843675 45.00390625 426.05859375 C44.51744629 427.06833252 44.03098633 428.07807129 43.52978516 429.1184082 C35.23563468 446.10637828 25.13524991 461.13388717 12.12890625 474.93359375 C11.54496094 475.57039063 10.96101563 476.2071875 10.359375 476.86328125 C-2.10915797 490.00342138 -19.69808642 498.76937379 -37.7734375 499.33422852 C-61.52868159 499.63515485 -78.36485425 490.04901451 -95.30859375 473.87109375 C-109.12654278 459.74131512 -118.76376774 442.59502801 -127.30859375 424.93359375 C-128.08964478 423.32121826 -128.08964478 423.32121826 -128.88647461 421.67626953 C-131.34986019 416.4895533 -133.54417051 411.52733002 -134.87109375 405.93359375 C-136.0415625 406.15015625 -137.21203125 406.36671875 -138.41796875 406.58984375 C-161.78789124 410.52254056 -188.71014713 411.78520092 -211.87109375 405.93359375 C-212.55961426 405.7619873 -213.24813477 405.59038086 -213.95751953 405.41357422 C-233.51181821 400.33789335 -252.21622743 390.4031858 -262.8828125 372.5703125 C-274.06484017 351.74919916 -273.49027976 330.2088197 -267.19140625 307.8828125 C-261.19779262 289.0898417 -250.91899887 270.5271494 -238.8515625 255.03125 C-238.08066284 254.02674805 -238.08066284 254.02674805 -237.29418945 253.00195312 C-236.27929224 251.68695619 -235.2482721 250.38421254 -234.19995117 249.09570312 C-232.59823152 247.10211546 -232.59823152 247.10211546 -230.87109375 243.93359375 C-231.57257492 239.35625195 -235.03061229 235.85448671 -237.80859375 232.24609375 C-258.52828251 204.55112005 -275.98139573 170.48462965 -270.87109375 134.93359375 C-267.52435119 118.06115589 -258.92639019 104.33345785 -245.05859375 94.12109375 C-223.73676851 80.38556056 -200.38557214 76.51534105 -175.37109375 76.62109375 C-174.19818787 76.62133545 -174.19818787 76.62133545 -173.00158691 76.62158203 C-160.09856369 76.64002527 -147.57947893 77.58226257 -134.87109375 79.93359375 C-134.49082031 78.69738281 -134.11054688 77.46117188 -133.71875 76.1875 C-122.90295495 43.82861347 -100.98854905 9.12485883 -69.93359375 -6.81640625 C-46.71738909 -18.08826538 -20.87958494 -15.02761964 0 0 Z M-85.82421875 33.33984375 C-95.96057357 46.18438497 -112.87109375 68.22780351 -112.87109375 84.93359375 C-111.90175903 85.1809729 -111.90175903 85.1809729 -110.9128418 85.43334961 C-89.34228002 90.98179744 -67.82397069 97.1540754 -47.3359375 105.99023438 C-40.99341636 108.62568275 -37.29593863 107.22373133 -31.12890625 104.74609375 C-17.91278112 99.53268586 -4.72668405 94.76767859 8.94140625 90.87109375 C9.59776062 90.68377686 10.25411499 90.49645996 10.93035889 90.3034668 C17.63547096 88.39946024 24.3544199 86.57409044 31.12890625 84.93359375 C30.61624442 78.71887693 27.87261152 73.58388547 25.19140625 68.05859375 C24.69850098 67.03862305 24.2055957 66.01865234 23.69775391 64.96777344 C17.26402887 51.87797382 9.9051717 39.81922266 0.12890625 28.93359375 C-0.5775 28.1446875 -1.28390625 27.35578125 -2.01171875 26.54296875 C-12.02343803 15.95503541 -24.00747605 8.13841222 -38.85400391 7.46533203 C-58.47782801 7.16583718 -73.5325604 18.9831868 -85.82421875 33.33984375 Z M-240.87109375 118.93359375 C-249.28652037 130.42131898 -252.17632306 143.00643549 -250.16772461 157.09594727 C-245.81631831 183.14818064 -231.34847194 205.13856887 -215.87109375 225.93359375 C-212.15062582 224.38584915 -209.84803001 222.11355179 -207.0546875 219.2421875 C-206.59812271 218.77804947 -206.14155792 218.31391144 -205.67115784 217.83570862 C-203.73317374 215.86540864 -201.80695842 213.88377287 -199.88061523 211.90209961 C-193.23729258 205.08488595 -186.33410103 198.86012126 -178.87109375 192.93359375 C-177.65325955 191.91550933 -176.44014548 190.89171873 -175.234375 189.859375 C-174.72374512 189.42351074 -174.21311523 188.98764648 -173.68701172 188.53857422 C-172.6346001 187.63382152 -171.58573101 186.72493927 -170.53955078 185.81298828 C-167.57222356 183.2553129 -164.65350239 181.21549217 -161.24609375 179.30859375 C-157.95838749 176.85908523 -157.31847735 174.46772623 -156.67643738 170.48934937 C-156.57438492 169.77485626 -156.47233246 169.06036316 -156.3671875 168.32421875 C-156.12121954 166.78221308 -155.87411458 165.24038842 -155.62597656 163.69873047 C-155.50250854 162.90770935 -155.37904053 162.11668823 -155.25183105 161.30169678 C-154.65515698 157.5905141 -153.96031061 153.89941688 -153.2578125 150.20703125 C-153.0523455 149.12169601 -153.0523455 149.12169601 -152.84272766 148.01443481 C-152.41770992 145.77856242 -151.98895379 143.54344375 -151.55859375 141.30859375 C-151.41001923 140.5357605 -151.2614447 139.76292725 -151.10836792 138.9666748 C-148.56330976 125.80322383 -145.52551011 112.83783319 -141.87109375 99.93359375 C-173.23521463 94.64326011 -217.48517849 93.48569456 -240.87109375 118.93359375 Z M60.12890625 99.93359375 C60.34506592 100.76157471 60.56122559 101.58955566 60.78393555 102.44262695 C64.56508892 117.01186785 68.24623758 131.55406787 70.94140625 146.37109375 C71.14878418 147.4789624 71.35616211 148.58683105 71.56982422 149.72827148 C72.43246466 154.46351818 73.19882441 159.12620393 73.53515625 163.9296875 C74.15689671 171.45331752 75.60534294 176.2005084 81.49365234 181.26245117 C84.30878453 183.46569606 87.19340979 185.53921451 90.14306641 187.55810547 C92.81240561 189.40701831 95.3133405 191.42930829 97.81640625 193.49609375 C98.68265625 194.20765625 99.54890625 194.91921875 100.44140625 195.65234375 C109.75024457 203.55403209 118.42019416 212.09923599 126.92456055 220.85375977 C127.57336182 221.51432373 128.22216309 222.1748877 128.890625 222.85546875 C129.46772217 223.4494043 130.04481934 224.04333984 130.6394043 224.65527344 C132.05471804 226.15068123 132.05471804 226.15068123 134.12890625 225.93359375 C135.49541781 224.48872496 135.49541781 224.48872496 136.8515625 222.55859375 C137.38571777 221.82874268 137.91987305 221.0988916 138.47021484 220.34692383 C139.32220459 219.15232544 139.32220459 219.15232544 140.19140625 217.93359375 C140.77486816 217.11850342 141.35833008 216.30341309 141.95947266 215.46362305 C157.39129344 193.56826798 172.84086346 165.51746003 168.12890625 137.93359375 C164.65015508 124.34303218 157.24379284 115.64217856 145.484375 108.27734375 C129.47550114 99.50045067 111.59733885 97.72757463 93.69140625 97.74609375 C92.98113281 97.74536865 92.27085937 97.74464355 91.5390625 97.74389648 C80.93160324 97.74509534 70.61943876 98.28420423 60.12890625 99.93359375 Z M-120.87109375 104.93359375 C-124.31834917 114.17711933 -126.84510051 123.51099261 -129.05859375 133.12109375 C-129.30818848 134.20052246 -129.5577832 135.27995117 -129.81494141 136.39208984 C-131.42679419 143.53619525 -132.74429776 150.69756501 -133.87109375 157.93359375 C-129.71450026 156.35077484 -126.30785769 154.28822184 -122.68359375 151.74609375 C-105.35695197 139.93035749 -86.76010183 129.99434819 -67.87109375 120.93359375 C-70.26802343 118.53666407 -72.09623076 118.01962451 -75.3046875 116.9453125 C-76.97797119 116.38348267 -76.97797119 116.38348267 -78.68505859 115.81030273 C-79.8808252 115.41786377 -81.0765918 115.0254248 -82.30859375 114.62109375 C-83.52240723 114.22027588 -84.7362207 113.81945801 -85.98681641 113.40649414 C-93.19475354 111.05504612 -100.41822195 108.8188599 -107.74609375 106.87109375 C-108.50462646 106.66766357 -109.26315918 106.4642334 -110.04467773 106.25463867 C-113.72249457 105.31632981 -117.07115082 104.70261683 -120.87109375 104.93359375 Z M30.453125 105.8671875 C29.55360107 106.10018555 28.65407715 106.33318359 27.72729492 106.57324219 C26.76670166 106.8365332 25.8061084 107.09982422 24.81640625 107.37109375 C23.32040894 107.77183105 23.32040894 107.77183105 21.79418945 108.18066406 C14.06438209 110.2978256 6.42677392 112.67296294 -1.18359375 115.18359375 C-2.22104736 115.52447021 -3.25850098 115.86534668 -4.32739258 116.21655273 C-5.76634888 116.70297241 -5.76634888 116.70297241 -7.234375 117.19921875 C-8.08298096 117.48571289 -8.93158691 117.77220703 -9.8059082 118.06738281 C-12.04188158 118.8520017 -12.04188158 118.8520017 -13.87109375 120.93359375 C-13.28545654 121.21332031 -12.69981934 121.49304688 -12.09643555 121.78125 C0.3621274 127.77272668 12.5027761 134.11756774 24.37890625 141.18359375 C25.47114502 141.83199219 26.56338379 142.48039062 27.6887207 143.1484375 C34.19357555 147.05600699 40.51040844 151.14938333 46.75683594 155.45605469 C48.94607217 157.10983058 48.94607217 157.10983058 51.12890625 156.93359375 C50.62875153 148.77322829 49.22123852 141.06277908 47.31640625 133.12109375 C46.91591064 131.41783936 46.91591064 131.41783936 46.50732422 129.68017578 C44.60821186 121.69431125 42.55354499 113.77801321 40.12890625 105.93359375 C36.51704161 105.02014308 34.05030649 104.9242155 30.453125 105.8671875 Z M-55.05859375 137.12109375 C-55.70913727 137.43527252 -56.35968079 137.74945129 -57.02993774 138.07315063 C-69.61854706 144.16994639 -81.83139354 150.80993217 -93.87109375 157.93359375 C-94.67047363 158.40361816 -95.46985352 158.87364258 -96.29345703 159.35791016 C-107.4431083 165.94029066 -118.26182088 173.00144485 -128.80761719 180.515625 C-130.87109375 181.93359375 -130.87109375 181.93359375 -132.92675781 183.1015625 C-135.65817191 184.72783667 -137.48612764 185.86168606 -138.58569336 188.92333984 C-138.98291506 191.35785709 -139.15101118 193.71905359 -139.24609375 196.18359375 C-139.32923828 197.36695313 -139.32923828 197.36695313 -139.4140625 198.57421875 C-139.53119784 200.31762842 -139.62995404 202.06232836 -139.71459961 203.80761719 C-139.86515436 206.81495426 -140.06109937 209.81760089 -140.26045227 212.82202148 C-140.89088858 222.61229369 -141.06877847 232.37482343 -141.05859375 242.18359375 C-141.05898651 242.99677063 -141.05937927 243.80994751 -141.05978394 244.64776611 C-141.05144067 259.20801082 -140.51389454 273.68876812 -139.11181641 288.18969727 C-138.87109375 290.93359375 -138.87109375 290.93359375 -138.84521484 293.28491211 C-138.74596761 296.15329214 -138.42344453 298.31787742 -136.47290039 300.4921875 C-134.51271876 302.06516951 -132.49949437 303.40965074 -130.37109375 304.74609375 C-129.21975952 305.51010498 -129.21975952 305.51010498 -128.04516602 306.28955078 C-126.44525255 307.34613134 -124.83776502 308.39132669 -123.22314453 309.42529297 C-121.06465433 310.80946906 -118.93174464 312.22442591 -116.8046875 313.65625 C-96.40153703 327.28176185 -74.81810961 339.01138869 -52.87109375 349.93359375 C-51.87287598 350.45550293 -50.8746582 350.97741211 -49.84619141 351.51513672 C-48.41412354 352.23080811 -48.41412354 352.23080811 -46.953125 352.9609375 C-46.11628174 353.39011475 -45.27943848 353.81929199 -44.41723633 354.26147461 C-37.76760175 356.01681491 -29.31848442 349.95573754 -23.43359375 347.12109375 C-22.84006104 346.83525421 -22.24652832 346.54941467 -21.63500977 346.25491333 C2.4912018 334.59657455 25.59255821 320.7806039 47.36279297 305.15014648 C49.12890625 303.93359375 49.12890625 303.93359375 51.08642578 302.81274414 C54.7314969 300.61564777 54.7314969 300.61564777 56.84960938 297.04956055 C57.24136909 294.7673507 57.40870854 292.55939817 57.50390625 290.24609375 C57.55933594 289.51326172 57.61476563 288.78042969 57.671875 288.02539062 C57.86427962 285.32948865 57.99328156 282.63296938 58.12890625 279.93359375 C58.21156233 278.59447605 58.29574377 277.25545199 58.38110352 275.91650391 C59.05141163 265.16644412 59.32767701 254.45357166 59.31640625 243.68359375 C59.31699539 242.47049026 59.31699539 242.47049026 59.31759644 241.23287964 C59.30902888 226.34228006 58.73156823 211.52745988 57.3762207 196.69335938 C57.22840665 195.04391209 57.10787116 193.39114157 57.04370117 191.73632812 C56.81747657 188.22539722 56.21765505 187.0207905 53.671875 184.51953125 C52.56876546 183.75972431 51.44868291 183.02421013 50.31640625 182.30859375 C49.69749512 181.89383789 49.07858398 181.47908203 48.44091797 181.05175781 C47.07680875 180.14324171 45.7056499 179.24524542 44.32861328 178.35644531 C42.06669168 176.89335107 39.82959891 175.39712044 37.59375 173.89453125 C-6.85507561 141.09054281 -6.85507561 141.09054281 -55.05859375 137.12109375 Z M-167.93359375 210.99609375 C-168.55121582 211.52759033 -169.16883789 212.05908691 -169.80517578 212.60668945 C-180.36707841 221.7701106 -190.96072568 231.11804829 -199.87109375 241.93359375 C-193.33951384 256.50656601 -174.72558259 270.88784235 -161.87109375 279.93359375 C-161.54109375 279.93359375 -161.21109375 279.93359375 -160.87109375 279.93359375 C-160.87109375 255.51359375 -160.87109375 231.09359375 -160.87109375 205.93359375 C-163.2864837 205.93359375 -166.09791609 209.41533003 -167.93359375 210.99609375 Z M79.12890625 205.93359375 C79.12890625 230.35359375 79.12890625 254.77359375 79.12890625 279.93359375 C83.5706113 276.97245705 87.04639807 274.33518587 90.87890625 270.74609375 C91.93054811 269.76645295 92.98263834 268.78729327 94.03515625 267.80859375 C94.55464844 267.32390625 95.07414062 266.83921875 95.609375 266.33984375 C97.83807759 264.27729122 100.10934539 262.26348118 102.37890625 260.24609375 C110.84847358 252.64083789 110.84847358 252.64083789 118.12890625 243.93359375 C113.02835713 232.77152249 101.34565635 223.71520975 92.12890625 215.93359375 C91.63358398 215.51335937 91.13826172 215.093125 90.62792969 214.66015625 C88.98553522 213.26839649 87.3392705 211.8813715 85.69140625 210.49609375 C85.15862061 210.0462915 84.62583496 209.59648926 84.0769043 209.13305664 C81.8776735 206.90342967 81.8776735 206.90342967 79.12890625 205.93359375 Z M-215.87109375 259.93359375 C-218.11030012 262.3591118 -219.95243683 265.12598146 -221.87109375 267.80859375 C-222.74241943 269.02458252 -222.74241943 269.02458252 -223.63134766 270.26513672 C-238.64699267 291.60359246 -253.70234863 319.05597771 -250.30859375 345.99609375 C-247.98769204 357.77194405 -241.97069697 367.51463794 -232.2175293 374.3659668 C-224.58222712 379.47044896 -216.78715587 382.62771561 -207.87109375 384.93359375 C-206.68257812 385.25199219 -205.4940625 385.57039063 -204.26953125 385.8984375 C-184.56900866 390.25181164 -161.66545058 389.27240093 -141.87109375 385.93359375 C-142.09023437 385.08023438 -142.309375 384.226875 -142.53515625 383.34765625 C-143.44331338 379.76671145 -144.33514189 376.18238383 -145.21630859 372.59472656 C-145.6639216 370.77556856 -146.11492563 368.95724246 -146.56884766 367.13964844 C-149.18665125 356.5946931 -151.63435777 346.07819669 -153.19140625 335.3203125 C-153.29729568 334.59595001 -153.40318512 333.87158752 -153.51228333 333.12527466 C-154.02724459 329.56417396 -154.51275786 326.00202616 -154.95874023 322.43164062 C-155.22666382 320.4893457 -155.22666382 320.4893457 -155.5 318.5078125 C-155.6451001 317.35885498 -155.7902002 316.20989746 -155.93969727 315.02612305 C-157.10538395 311.1556766 -158.83817985 309.5518602 -161.87109375 306.93359375 C-162.81456665 306.11072876 -162.81456665 306.11072876 -163.77709961 305.27124023 C-164.37401611 304.78727783 -164.97093262 304.30331543 -165.5859375 303.8046875 C-166.26430664 303.25159912 -166.94267578 302.69851074 -167.64160156 302.12866211 C-168.35670898 301.54866455 -169.07181641 300.96866699 -169.80859375 300.37109375 C-171.34437168 299.11143466 -172.87951995 297.85100751 -174.4140625 296.58984375 C-176.5035742 294.87455307 -178.59330607 293.15970174 -180.68994141 291.453125 C-190.03519219 283.82167131 -198.53160085 275.42700033 -206.94042969 266.79077148 C-207.80958008 265.90462158 -208.67873047 265.01847168 -209.57421875 264.10546875 C-210.35442383 263.30206055 -211.13462891 262.49865234 -211.93847656 261.67089844 C-213.68587271 259.71075088 -213.68587271 259.71075088 -215.87109375 259.93359375 Z M129.87329102 261.99389648 C128.93417274 262.9469618 128.00022173 263.90513476 127.0703125 264.8671875 C126.56652573 265.37854752 126.06273895 265.88990753 125.54368591 266.41676331 C123.38903661 268.60394344 121.24591243 270.80227113 119.1027832 273.00073242 C112.1178756 280.1503733 104.98294618 286.72288981 97.12890625 292.93359375 C95.91085035 293.95141292 94.69773497 294.97520836 93.4921875 296.0078125 C92.98155762 296.44367676 92.47092773 296.87954102 91.94482422 297.32861328 C90.8924126 298.23336598 89.84354351 299.14224823 88.79736328 300.05419922 C85.83003606 302.6118746 82.91131489 304.65169533 79.50390625 306.55859375 C76.21619999 309.00810227 75.57628985 311.39946127 74.93424988 315.37783813 C74.83219742 316.09233124 74.73014496 316.80682434 74.625 317.54296875 C74.37903204 319.08497442 74.13192708 320.62679908 73.88378906 322.16845703 C73.69858704 323.35498871 73.69858704 323.35498871 73.50964355 324.56549072 C72.91296948 328.2766734 72.21812311 331.96777062 71.515625 335.66015625 C71.378647 336.38371307 71.24166901 337.1072699 71.10054016 337.85275269 C70.67552242 340.08862508 70.24676629 342.32374375 69.81640625 344.55859375 C69.66783173 345.331427 69.5192572 346.10426025 69.36618042 346.9005127 C66.82112226 360.06396367 63.78332261 373.02935431 60.12890625 385.93359375 C88.21997575 390.67184644 124.16860925 391.69330688 148.921875 375.51953125 C158.66335172 368.51946125 165.58467674 359.91190057 168.12890625 347.93359375 C172.64050004 320.05963832 157.65334235 292.96787726 142.12890625 270.93359375 C141.73574219 270.36608398 141.34257812 269.79857422 140.9375 269.21386719 C137.68221515 264.46028841 137.68221515 264.46028841 134.12890625 259.93359375 C131.86586672 259.70878803 131.86586672 259.70878803 129.87329102 261.99389648 Z M-133.87109375 327.93359375 C-129.80391349 355.14549554 -129.80391349 355.14549554 -120.87109375 380.93359375 C-113.02709182 380.35473158 -105.84390977 378.44719388 -98.30859375 376.24609375 C-97.0752832 375.8903125 -95.84197266 375.53453125 -94.57128906 375.16796875 C-85.4939942 372.50840953 -76.62182649 369.52085065 -67.87109375 365.93359375 C-70.87284663 363.54041785 -73.92837787 361.78509406 -77.359375 360.0703125 C-78.44742432 359.51996338 -79.53547363 358.96961426 -80.65649414 358.40258789 C-81.82043701 357.81469482 -82.98437988 357.22680176 -84.18359375 356.62109375 C-93.46301029 351.88825394 -102.54096802 346.93257212 -111.43359375 341.49609375 C-112.34085205 340.94203857 -113.24811035 340.3879834 -114.18286133 339.81713867 C-119.55866445 336.48564802 -124.74274235 332.95761118 -129.85522461 329.23413086 C-131.75136343 327.75288711 -131.75136343 327.75288711 -133.87109375 327.93359375 Z M41.69140625 333.74609375 C27.50478823 343.05842048 12.80752843 351.25518036 -2.30712891 358.96264648 C-3.23444824 359.43774658 -4.16176758 359.91284668 -5.1171875 360.40234375 C-5.93888428 360.81935547 -6.76058105 361.23636719 -7.60717773 361.66601562 C-9.85866499 362.92663482 -11.84643713 364.33825142 -13.87109375 365.93359375 C-3.30257163 370.07786524 7.32542756 373.7231635 18.25390625 376.80859375 C19.29538818 377.10644775 20.33687012 377.40430176 21.40991211 377.71118164 C27.33784903 379.34875695 32.99743537 380.43644746 39.12890625 380.93359375 C42.03371147 373.80927024 43.86278157 366.52252847 45.69140625 359.05859375 C45.99498047 357.84300781 46.29855469 356.62742187 46.61132812 355.375 C50.1719121 342.32325355 50.1719121 342.32325355 51.12890625 328.93359375 C47.52499051 328.93359375 44.61956174 331.787992 41.69140625 333.74609375 Z M-48.8359375 380.49609375 C-50.27735017 381.04839101 -51.71901137 381.60003994 -53.16088867 382.15112305 C-53.9192099 382.44240082 -54.67753113 382.73367859 -55.45883179 383.03378296 C-74.29570967 390.24712042 -93.27115271 396.12248368 -112.87109375 400.93359375 C-112.35844873 407.14810686 -109.61511343 412.28361377 -106.93359375 417.80859375 C-106.43923828 418.83001465 -105.94488281 419.85143555 -105.43554688 420.90380859 C-98.49524724 435.00821702 -90.44583055 447.30958074 -79.87109375 458.93359375 C-79.25621094 459.63097656 -78.64132813 460.32835937 -78.0078125 461.046875 C-69.90960328 469.7635632 -57.46045319 477.34355892 -45.40234375 478.171875 C-28.92355619 478.63332207 -17.30604975 473.15439992 -4.95703125 462.39453125 C9.38655949 448.69741221 18.66143989 431.36692864 27.19140625 413.68359375 C27.78320679 412.46796753 27.78320679 412.46796753 28.38696289 411.2277832 C28.74653076 410.46554443 29.10609863 409.70330566 29.4765625 408.91796875 C29.79633057 408.24475586 30.11609863 407.57154297 30.44555664 406.87792969 C31.34995581 404.6481284 31.34995581 404.6481284 31.12890625 400.93359375 C30.48268311 400.76867432 29.83645996 400.60375488 29.1706543 400.43383789 C7.74905881 394.92370764 -13.64140798 388.86502093 -33.93774414 379.96484375 C-39.87509936 377.37388514 -43.00977169 378.21418916 -48.8359375 380.49609375 Z " fill="#000000" transform="translate(296.87109375,13.06640625)"/>
<path d="M0 0 C9.3446463 8.43613902 15.37509959 20.02682068 16.25 32.58984375 C16.85360455 47.33606399 13.01957214 60.11678163 2.96875 71.25 C-7.37255507 81.14168311 -19.71760967 85.40970338 -33.79272461 85.36889648 C-47.16652212 84.98590194 -59.07048203 79.47460969 -68.3125 69.8125 C-77.87173825 58.31000798 -81.01273939 45.62425213 -80.19091797 31.00878906 C-78.98314014 18.3008658 -72.23988483 6.86008774 -62.5234375 -1.21484375 C-43.11151048 -14.94742989 -18.82901651 -14.8278505 0 0 Z " fill="#000000" transform="translate(288,219)"/>
</svg>
